<mxfile host="app.diagrams.net" modified="2020-12-08T11:46:27.724Z" agent="5.0 (Windows NT 10.0; Win64; x64) AppleWebKit/537.36 (KHTML, like Gecko) Chrome/86.0.4240.198 Safari/537.36" etag="yTzKDggN6TyWFKqERAp6" version="13.11.0" type="github">
  <diagram name="Page-1" id="c37626ed-c26b-45fb-9056-f9ebc6bb27b6">
    <mxGraphModel dx="1117" dy="670" grid="1" gridSize="10" guides="1" tooltips="1" connect="1" arrows="1" fold="1" page="1" pageScale="1" pageWidth="1100" pageHeight="850" background="#ffffff" math="0" shadow="0">
      <root>
        <mxCell id="0" />
        <mxCell id="1" parent="0" />
        <mxCell id="_8KlAEBZFSLKx_T30-rn-66" value="" style="rounded=0;whiteSpace=wrap;html=1;fillColor=#fff2cc;strokeColor=#d6b656;" vertex="1" parent="1">
          <mxGeometry x="770" y="360" width="530" height="150" as="geometry" />
        </mxCell>
        <mxCell id="_8KlAEBZFSLKx_T30-rn-64" value="" style="rounded=0;whiteSpace=wrap;html=1;fillColor=#dae8fc;strokeColor=#6c8ebf;" vertex="1" parent="1">
          <mxGeometry x="650" y="530" width="650" height="440" as="geometry" />
        </mxCell>
        <mxCell id="_8KlAEBZFSLKx_T30-rn-1" value="" style="aspect=fixed;perimeter=ellipsePerimeter;html=1;align=center;shadow=0;dashed=0;spacingTop=3;image;image=img/lib/active_directory/internet_cloud.svg;" vertex="1" parent="1">
          <mxGeometry x="190" y="370" width="63.49" height="40" as="geometry" />
        </mxCell>
        <mxCell id="_8KlAEBZFSLKx_T30-rn-2" value="" style="shape=mxgraph.cisco.modems_and_phones.cable_modem;html=1;pointerEvents=1;dashed=0;fillColor=#036897;strokeColor=#ffffff;strokeWidth=2;verticalLabelPosition=bottom;verticalAlign=top;align=center;outlineConnect=0;" vertex="1" parent="1">
          <mxGeometry x="330" y="374" width="60" height="32" as="geometry" />
        </mxCell>
        <mxCell id="_8KlAEBZFSLKx_T30-rn-3" value="" style="endArrow=none;html=1;exitX=1;exitY=0.5;exitDx=0;exitDy=0;entryX=0;entryY=0.5;entryDx=0;entryDy=0;entryPerimeter=0;" edge="1" parent="1" source="_8KlAEBZFSLKx_T30-rn-1" target="_8KlAEBZFSLKx_T30-rn-2">
          <mxGeometry width="50" height="50" relative="1" as="geometry">
            <mxPoint x="430" y="570" as="sourcePoint" />
            <mxPoint x="480" y="520" as="targetPoint" />
          </mxGeometry>
        </mxCell>
        <mxCell id="_8KlAEBZFSLKx_T30-rn-4" value="" style="shape=mxgraph.cisco.routers.router;html=1;pointerEvents=1;dashed=0;fillColor=#036897;strokeColor=#ffffff;strokeWidth=2;verticalLabelPosition=bottom;verticalAlign=top;align=center;outlineConnect=0;" vertex="1" parent="1">
          <mxGeometry x="470" y="369.5" width="60" height="36.5" as="geometry" />
        </mxCell>
        <mxCell id="_8KlAEBZFSLKx_T30-rn-5" value="" style="endArrow=none;html=1;entryX=0;entryY=0.5;entryDx=0;entryDy=0;entryPerimeter=0;exitX=1;exitY=0.45;exitDx=0;exitDy=0;exitPerimeter=0;" edge="1" parent="1" source="_8KlAEBZFSLKx_T30-rn-2" target="_8KlAEBZFSLKx_T30-rn-4">
          <mxGeometry width="50" height="50" relative="1" as="geometry">
            <mxPoint x="430" y="570" as="sourcePoint" />
            <mxPoint x="480" y="520" as="targetPoint" />
          </mxGeometry>
        </mxCell>
        <mxCell id="_8KlAEBZFSLKx_T30-rn-6" value="" style="shape=mxgraph.cisco.switches.layer_3_switch;html=1;pointerEvents=1;dashed=0;fillColor=#036897;strokeColor=#ffffff;strokeWidth=2;verticalLabelPosition=bottom;verticalAlign=top;align=center;outlineConnect=0;" vertex="1" parent="1">
          <mxGeometry x="630" y="360.63" width="50" height="54.25" as="geometry" />
        </mxCell>
        <mxCell id="_8KlAEBZFSLKx_T30-rn-7" value="" style="endArrow=none;html=1;exitX=1;exitY=0.5;exitDx=0;exitDy=0;exitPerimeter=0;entryX=0;entryY=0.5;entryDx=0;entryDy=0;entryPerimeter=0;" edge="1" parent="1" source="_8KlAEBZFSLKx_T30-rn-4" target="_8KlAEBZFSLKx_T30-rn-6">
          <mxGeometry width="50" height="50" relative="1" as="geometry">
            <mxPoint x="700" y="470" as="sourcePoint" />
            <mxPoint x="750" y="420" as="targetPoint" />
          </mxGeometry>
        </mxCell>
        <mxCell id="_8KlAEBZFSLKx_T30-rn-8" value="" style="endArrow=none;html=1;exitX=1;exitY=0.5;exitDx=0;exitDy=0;exitPerimeter=0;entryX=0;entryY=0.5;entryDx=0;entryDy=0;entryPerimeter=0;" edge="1" parent="1" source="_8KlAEBZFSLKx_T30-rn-6" target="_8KlAEBZFSLKx_T30-rn-9">
          <mxGeometry width="50" height="50" relative="1" as="geometry">
            <mxPoint x="700" y="470" as="sourcePoint" />
            <mxPoint x="750" y="280" as="targetPoint" />
          </mxGeometry>
        </mxCell>
        <mxCell id="_8KlAEBZFSLKx_T30-rn-9" value="" style="shape=mxgraph.cisco.switches.workgroup_switch;html=1;pointerEvents=1;dashed=0;fillColor=#036897;strokeColor=#ffffff;strokeWidth=2;verticalLabelPosition=bottom;verticalAlign=top;align=center;outlineConnect=0;" vertex="1" parent="1">
          <mxGeometry x="750" y="270" width="60" height="20" as="geometry" />
        </mxCell>
        <mxCell id="_8KlAEBZFSLKx_T30-rn-11" value="" style="shape=mxgraph.cisco.servers.fileserver;html=1;pointerEvents=1;dashed=0;fillColor=#036897;strokeColor=#ffffff;strokeWidth=2;verticalLabelPosition=bottom;verticalAlign=top;align=center;outlineConnect=0;" vertex="1" parent="1">
          <mxGeometry x="860" y="180" width="30" height="50" as="geometry" />
        </mxCell>
        <mxCell id="_8KlAEBZFSLKx_T30-rn-12" value="" style="shape=mxgraph.cisco.servers.fileserver;html=1;pointerEvents=1;dashed=0;fillColor=#036897;strokeColor=#ffffff;strokeWidth=2;verticalLabelPosition=bottom;verticalAlign=top;align=center;outlineConnect=0;" vertex="1" parent="1">
          <mxGeometry x="860" y="270" width="30" height="50" as="geometry" />
        </mxCell>
        <mxCell id="_8KlAEBZFSLKx_T30-rn-14" value="" style="endArrow=none;html=1;entryX=0;entryY=0.5;entryDx=0;entryDy=0;entryPerimeter=0;exitX=1;exitY=0;exitDx=0;exitDy=0;exitPerimeter=0;" edge="1" parent="1" source="_8KlAEBZFSLKx_T30-rn-9" target="_8KlAEBZFSLKx_T30-rn-11">
          <mxGeometry width="50" height="50" relative="1" as="geometry">
            <mxPoint x="750" y="370" as="sourcePoint" />
            <mxPoint x="800" y="320" as="targetPoint" />
          </mxGeometry>
        </mxCell>
        <mxCell id="_8KlAEBZFSLKx_T30-rn-15" value="" style="endArrow=none;html=1;entryX=0;entryY=0.5;entryDx=0;entryDy=0;entryPerimeter=0;exitX=0.87;exitY=0.74;exitDx=0;exitDy=0;exitPerimeter=0;" edge="1" parent="1" source="_8KlAEBZFSLKx_T30-rn-9" target="_8KlAEBZFSLKx_T30-rn-12">
          <mxGeometry width="50" height="50" relative="1" as="geometry">
            <mxPoint x="750" y="370" as="sourcePoint" />
            <mxPoint x="800" y="320" as="targetPoint" />
          </mxGeometry>
        </mxCell>
        <mxCell id="_8KlAEBZFSLKx_T30-rn-16" value="Mail Server" style="text;html=1;strokeColor=none;fillColor=none;align=center;verticalAlign=middle;whiteSpace=wrap;rounded=0;" vertex="1" parent="1">
          <mxGeometry x="890" y="195" width="90" height="20" as="geometry" />
        </mxCell>
        <mxCell id="_8KlAEBZFSLKx_T30-rn-17" value="Web Server" style="text;html=1;strokeColor=none;fillColor=none;align=center;verticalAlign=middle;whiteSpace=wrap;rounded=0;" vertex="1" parent="1">
          <mxGeometry x="890" y="285" width="90" height="20" as="geometry" />
        </mxCell>
        <mxCell id="_8KlAEBZFSLKx_T30-rn-18" value="" style="shape=mxgraph.cisco.wireless.wireless_transport;html=1;pointerEvents=1;dashed=0;fillColor=#036897;strokeColor=#ffffff;strokeWidth=2;verticalLabelPosition=bottom;verticalAlign=top;align=center;outlineConnect=0;" vertex="1" parent="1">
          <mxGeometry x="800" y="408.87" width="50" height="30.5" as="geometry" />
        </mxCell>
        <mxCell id="_8KlAEBZFSLKx_T30-rn-19" value="" style="endArrow=none;html=1;exitX=1;exitY=0.5;exitDx=0;exitDy=0;exitPerimeter=0;entryX=0;entryY=0.5;entryDx=0;entryDy=0;entryPerimeter=0;" edge="1" parent="1" source="_8KlAEBZFSLKx_T30-rn-6" target="_8KlAEBZFSLKx_T30-rn-18">
          <mxGeometry width="50" height="50" relative="1" as="geometry">
            <mxPoint x="740" y="470" as="sourcePoint" />
            <mxPoint x="790" y="420" as="targetPoint" />
          </mxGeometry>
        </mxCell>
        <mxCell id="_8KlAEBZFSLKx_T30-rn-22" value="" style="shape=mxgraph.cisco.computers_and_peripherals.laptop;html=1;pointerEvents=1;dashed=0;fillColor=#036897;strokeColor=#ffffff;strokeWidth=2;verticalLabelPosition=bottom;verticalAlign=top;align=center;outlineConnect=0;" vertex="1" parent="1">
          <mxGeometry x="900" y="408.87" width="60" height="42.75" as="geometry" />
        </mxCell>
        <mxCell id="_8KlAEBZFSLKx_T30-rn-24" value="" style="html=1;verticalLabelPosition=bottom;align=center;labelBackgroundColor=#ffffff;verticalAlign=top;strokeWidth=2;strokeColor=#0080F0;shadow=0;dashed=0;shape=mxgraph.ios7.icons.wifi;pointerEvents=1;rotation=90;" vertex="1" parent="1">
          <mxGeometry x="860" y="412.37" width="29.7" height="31" as="geometry" />
        </mxCell>
        <mxCell id="_8KlAEBZFSLKx_T30-rn-26" value="Guest Wifi" style="text;html=1;strokeColor=none;fillColor=none;align=center;verticalAlign=middle;whiteSpace=wrap;rounded=0;" vertex="1" parent="1">
          <mxGeometry x="840" y="374" width="80" height="20" as="geometry" />
        </mxCell>
        <mxCell id="_8KlAEBZFSLKx_T30-rn-29" value="ADSL" style="text;html=1;strokeColor=none;fillColor=none;align=center;verticalAlign=middle;whiteSpace=wrap;rounded=0;" vertex="1" parent="1">
          <mxGeometry x="350" y="349.5" width="40" height="20" as="geometry" />
        </mxCell>
        <mxCell id="_8KlAEBZFSLKx_T30-rn-33" value="Router" style="text;html=1;strokeColor=none;fillColor=none;align=center;verticalAlign=middle;whiteSpace=wrap;rounded=0;" vertex="1" parent="1">
          <mxGeometry x="480" y="340.63" width="40" height="20" as="geometry" />
        </mxCell>
        <mxCell id="_8KlAEBZFSLKx_T30-rn-34" value="Switch Layer 3" style="text;html=1;strokeColor=none;fillColor=none;align=center;verticalAlign=middle;whiteSpace=wrap;rounded=0;" vertex="1" parent="1">
          <mxGeometry x="610" y="320.63" width="90" height="20" as="geometry" />
        </mxCell>
        <mxCell id="_8KlAEBZFSLKx_T30-rn-35" value="" style="shape=mxgraph.cisco.switches.workgroup_switch;html=1;pointerEvents=1;dashed=0;fillColor=#036897;strokeColor=#ffffff;strokeWidth=2;verticalLabelPosition=bottom;verticalAlign=top;align=center;outlineConnect=0;" vertex="1" parent="1">
          <mxGeometry x="760" y="610" width="60" height="20" as="geometry" />
        </mxCell>
        <mxCell id="_8KlAEBZFSLKx_T30-rn-36" value="" style="shape=mxgraph.cisco.switches.workgroup_switch;html=1;pointerEvents=1;dashed=0;fillColor=#036897;strokeColor=#ffffff;strokeWidth=2;verticalLabelPosition=bottom;verticalAlign=top;align=center;outlineConnect=0;" vertex="1" parent="1">
          <mxGeometry x="760" y="730" width="60" height="20" as="geometry" />
        </mxCell>
        <mxCell id="_8KlAEBZFSLKx_T30-rn-42" value="" style="shape=mxgraph.cisco.switches.workgroup_switch;html=1;pointerEvents=1;dashed=0;fillColor=#036897;strokeColor=#ffffff;strokeWidth=2;verticalLabelPosition=bottom;verticalAlign=top;align=center;outlineConnect=0;" vertex="1" parent="1">
          <mxGeometry x="760" y="890" width="60" height="20" as="geometry" />
        </mxCell>
        <mxCell id="_8KlAEBZFSLKx_T30-rn-43" value="" style="endArrow=none;html=1;exitX=0.16;exitY=0.23;exitDx=0;exitDy=0;exitPerimeter=0;" edge="1" parent="1" source="_8KlAEBZFSLKx_T30-rn-35">
          <mxGeometry width="50" height="50" relative="1" as="geometry">
            <mxPoint x="470" y="600" as="sourcePoint" />
            <mxPoint x="680" y="390" as="targetPoint" />
          </mxGeometry>
        </mxCell>
        <mxCell id="_8KlAEBZFSLKx_T30-rn-44" value="" style="endArrow=none;html=1;entryX=1;entryY=0.5;entryDx=0;entryDy=0;entryPerimeter=0;exitX=0.16;exitY=0.23;exitDx=0;exitDy=0;exitPerimeter=0;" edge="1" parent="1" source="_8KlAEBZFSLKx_T30-rn-36" target="_8KlAEBZFSLKx_T30-rn-6">
          <mxGeometry width="50" height="50" relative="1" as="geometry">
            <mxPoint x="729.5999999999999" y="524.6000000000001" as="sourcePoint" />
            <mxPoint x="665" y="424.8800000000001" as="targetPoint" />
          </mxGeometry>
        </mxCell>
        <mxCell id="_8KlAEBZFSLKx_T30-rn-45" value="" style="endArrow=none;html=1;entryX=1;entryY=0.5;entryDx=0;entryDy=0;entryPerimeter=0;exitX=0;exitY=0.5;exitDx=0;exitDy=0;exitPerimeter=0;" edge="1" parent="1" source="_8KlAEBZFSLKx_T30-rn-42" target="_8KlAEBZFSLKx_T30-rn-6">
          <mxGeometry width="50" height="50" relative="1" as="geometry">
            <mxPoint x="470" y="600" as="sourcePoint" />
            <mxPoint x="520" y="550" as="targetPoint" />
          </mxGeometry>
        </mxCell>
        <mxCell id="_8KlAEBZFSLKx_T30-rn-46" value="" style="shape=mxgraph.cisco.computers_and_peripherals.pc;html=1;pointerEvents=1;dashed=0;fillColor=#036897;strokeColor=#ffffff;strokeWidth=2;verticalLabelPosition=bottom;verticalAlign=top;align=center;outlineConnect=0;" vertex="1" parent="1">
          <mxGeometry x="929.7" y="560" width="40" height="40" as="geometry" />
        </mxCell>
        <mxCell id="_8KlAEBZFSLKx_T30-rn-47" value="" style="shape=mxgraph.cisco.computers_and_peripherals.pc;html=1;pointerEvents=1;dashed=0;fillColor=#036897;strokeColor=#ffffff;strokeWidth=2;verticalLabelPosition=bottom;verticalAlign=top;align=center;outlineConnect=0;" vertex="1" parent="1">
          <mxGeometry x="929.7" y="630" width="40" height="40" as="geometry" />
        </mxCell>
        <mxCell id="_8KlAEBZFSLKx_T30-rn-48" value="" style="shape=mxgraph.cisco.computers_and_peripherals.pc;html=1;pointerEvents=1;dashed=0;fillColor=#036897;strokeColor=#ffffff;strokeWidth=2;verticalLabelPosition=bottom;verticalAlign=top;align=center;outlineConnect=0;" vertex="1" parent="1">
          <mxGeometry x="929.7" y="700" width="40" height="40" as="geometry" />
        </mxCell>
        <mxCell id="_8KlAEBZFSLKx_T30-rn-50" value="" style="shape=mxgraph.cisco.computers_and_peripherals.pc;html=1;pointerEvents=1;dashed=0;fillColor=#036897;strokeColor=#ffffff;strokeWidth=2;verticalLabelPosition=bottom;verticalAlign=top;align=center;outlineConnect=0;" vertex="1" parent="1">
          <mxGeometry x="929.7" y="770" width="40" height="40" as="geometry" />
        </mxCell>
        <mxCell id="_8KlAEBZFSLKx_T30-rn-54" value="" style="shape=mxgraph.cisco.computers_and_peripherals.pc;html=1;pointerEvents=1;dashed=0;fillColor=#036897;strokeColor=#ffffff;strokeWidth=2;verticalLabelPosition=bottom;verticalAlign=top;align=center;outlineConnect=0;" vertex="1" parent="1">
          <mxGeometry x="929.7" y="845" width="40" height="40" as="geometry" />
        </mxCell>
        <mxCell id="_8KlAEBZFSLKx_T30-rn-55" value="" style="shape=mxgraph.cisco.computers_and_peripherals.pc;html=1;pointerEvents=1;dashed=0;fillColor=#036897;strokeColor=#ffffff;strokeWidth=2;verticalLabelPosition=bottom;verticalAlign=top;align=center;outlineConnect=0;" vertex="1" parent="1">
          <mxGeometry x="929.7" y="915" width="40" height="40" as="geometry" />
        </mxCell>
        <mxCell id="_8KlAEBZFSLKx_T30-rn-56" value="" style="endArrow=none;html=1;exitX=0.98;exitY=0.5;exitDx=0;exitDy=0;exitPerimeter=0;entryX=0.16;entryY=0.5;entryDx=0;entryDy=0;entryPerimeter=0;" edge="1" parent="1" source="_8KlAEBZFSLKx_T30-rn-35" target="_8KlAEBZFSLKx_T30-rn-46">
          <mxGeometry width="50" height="50" relative="1" as="geometry">
            <mxPoint x="860" y="700" as="sourcePoint" />
            <mxPoint x="910" y="650" as="targetPoint" />
          </mxGeometry>
        </mxCell>
        <mxCell id="_8KlAEBZFSLKx_T30-rn-59" value="" style="endArrow=none;html=1;exitX=0.98;exitY=0.5;exitDx=0;exitDy=0;exitPerimeter=0;" edge="1" parent="1" source="_8KlAEBZFSLKx_T30-rn-35" target="_8KlAEBZFSLKx_T30-rn-47">
          <mxGeometry width="50" height="50" relative="1" as="geometry">
            <mxPoint x="860" y="700" as="sourcePoint" />
            <mxPoint x="910" y="650" as="targetPoint" />
          </mxGeometry>
        </mxCell>
        <mxCell id="_8KlAEBZFSLKx_T30-rn-60" value="" style="endArrow=none;html=1;exitX=0.98;exitY=0.5;exitDx=0;exitDy=0;exitPerimeter=0;entryX=0.16;entryY=0.5;entryDx=0;entryDy=0;entryPerimeter=0;" edge="1" parent="1" source="_8KlAEBZFSLKx_T30-rn-36" target="_8KlAEBZFSLKx_T30-rn-48">
          <mxGeometry width="50" height="50" relative="1" as="geometry">
            <mxPoint x="860" y="700" as="sourcePoint" />
            <mxPoint x="910" y="650" as="targetPoint" />
          </mxGeometry>
        </mxCell>
        <mxCell id="_8KlAEBZFSLKx_T30-rn-61" value="" style="endArrow=none;html=1;exitX=0.98;exitY=0.5;exitDx=0;exitDy=0;exitPerimeter=0;" edge="1" parent="1" source="_8KlAEBZFSLKx_T30-rn-36" target="_8KlAEBZFSLKx_T30-rn-50">
          <mxGeometry width="50" height="50" relative="1" as="geometry">
            <mxPoint x="860" y="700" as="sourcePoint" />
            <mxPoint x="910" y="650" as="targetPoint" />
          </mxGeometry>
        </mxCell>
        <mxCell id="_8KlAEBZFSLKx_T30-rn-62" value="" style="endArrow=none;html=1;exitX=0.98;exitY=0.5;exitDx=0;exitDy=0;exitPerimeter=0;" edge="1" parent="1" source="_8KlAEBZFSLKx_T30-rn-42" target="_8KlAEBZFSLKx_T30-rn-54">
          <mxGeometry width="50" height="50" relative="1" as="geometry">
            <mxPoint x="860" y="700" as="sourcePoint" />
            <mxPoint x="910" y="650" as="targetPoint" />
          </mxGeometry>
        </mxCell>
        <mxCell id="_8KlAEBZFSLKx_T30-rn-63" value="" style="endArrow=none;html=1;exitX=0.87;exitY=0.74;exitDx=0;exitDy=0;exitPerimeter=0;" edge="1" parent="1" source="_8KlAEBZFSLKx_T30-rn-42" target="_8KlAEBZFSLKx_T30-rn-55">
          <mxGeometry width="50" height="50" relative="1" as="geometry">
            <mxPoint x="860" y="700" as="sourcePoint" />
            <mxPoint x="910" y="650" as="targetPoint" />
          </mxGeometry>
        </mxCell>
        <mxCell id="_8KlAEBZFSLKx_T30-rn-65" value="&lt;font style=&quot;font-size: 20px&quot;&gt;Mạng nội bộ của Ngân hàng:&lt;br&gt;- Chia thành các VLAN cho từng phòng ban&lt;br&gt;- Các VLAN này kết nối được với INTERNET và VLAN Server&lt;br&gt;- Máy ngoài mạng không kết nối được với máy trong mạng nội bộ&amp;nbsp;&lt;br&gt;&lt;/font&gt;" style="text;html=1;strokeColor=none;fillColor=none;align=left;verticalAlign=middle;whiteSpace=wrap;rounded=0;" vertex="1" parent="1">
          <mxGeometry x="1000" y="520" width="290" height="240" as="geometry" />
        </mxCell>
        <mxCell id="_8KlAEBZFSLKx_T30-rn-67" value="Mạng Wifi dành cho Khách hàng:&lt;br&gt;- Chỉ dùng để kết nối INTERNET, không được phép kết nối với mạng nội bộ" style="text;html=1;strokeColor=none;fillColor=none;align=left;verticalAlign=middle;whiteSpace=wrap;rounded=0;fontSize=18;" vertex="1" parent="1">
          <mxGeometry x="1000" y="374" width="275" height="116" as="geometry" />
        </mxCell>
      </root>
    </mxGraphModel>
  </diagram>
</mxfile>
